<svg width="82" height="81" viewBox="0 0 82 81" fill="none" xmlns="http://www.w3.org/2000/svg">
<path d="M71.5774 39.9L71.0374 39.1667C70.0924 38.0333 68.9787 37.1333 67.6962 36.4667C65.9749 35.5 64.0174 35 61.9924 35H19.9737C17.9487 35 16.0249 35.5 14.2699 36.4667C12.9537 37.1667 11.7724 38.1333 10.7937 39.3333C8.86993 41.7667 7.95868 44.7667 8.26243 47.7667L9.51118 63.3333C9.94993 68.0333 10.5237 73.8333 21.2224 73.8333H60.7774C71.4762 73.8333 72.0162 68.0333 72.4887 63.3L73.7374 47.8C74.0412 45 73.2987 42.2 71.5774 39.9ZM49.0662 58.3H32.8999C31.5837 58.3 30.5374 57.2333 30.5374 55.9667C30.5374 54.7 31.5837 53.6333 32.8999 53.6333H49.0662C50.3824 53.6333 51.4287 54.7 51.4287 55.9667C51.4287 57.2667 50.3824 58.3 49.0662 58.3Z" fill="#2156DA"/>
<path d="M70.0326 31.1711C70.0483 31.5543 69.639 31.8086 69.2927 31.6436C67.0392 30.5701 64.601 30.0334 62.0269 30.0334H19.9745C17.3996 30.0334 14.8791 30.5973 12.657 31.6529C12.3147 31.8155 11.9082 31.5723 11.9082 31.1933V22.7001C11.9082 10.8001 15.587 7.16675 27.6357 7.16675H31.6182C36.4445 7.16675 37.9632 8.70008 39.9207 11.2001L43.9707 16.5334C44.8144 17.6667 44.8482 17.7334 46.3332 17.7334H54.3657C65.6966 17.7334 69.6126 20.9532 70.0326 31.1711Z" fill="#2156DA"/>
</svg>
